#!OML:ASF F:\VICON\USERDATA\INSTALL\rory3\rory3.ASF
:FULLY-SPECIFIED
:DEGREES
394
root -4.5355 17.9032 15.5386 222.886 -83.1957 -228.443
lowerback 12.0374 1.14097 -4.36515
upperback 1.64626 0.83455 -0.582973
thorax -5.0789 0.45505 1.71835
lowerneck -19.8214 -6.09915 -12.6596
upperneck 28.148 -8.28243 10.1549
head 13.874 -3.83116 4.68035
rclavicle 1.80149e-015 -3.18055e-015
rhumerus -36.9836 -15.2325 -78.4218
rradius 32.4449
rwrist 4.24117
rhand -15.6787 10.4659
rfingers 7.12502
rthumb 10.5101 -19.2513
lclavicle 1.80149e-015 -3.18055e-015
lhumerus -34.3155 5.66875 80.0521
lradius 32.8553
lwrist -3.78277
lhand -20.7371 26.277
lfingers 7.12502
lthumb 5.6282 56.1822
rfemur -18.1195 -9.81039 13.3081
rtibia 70.1589
rfoot -1.44925 -3.12102
rtoes 16.0651
lfemur 2.263 1.54211 -27.7618
ltibia 11.4441
lfoot -4.63068 -7.89007
ltoes -4.9577
395
root -4.64186 17.8796 15.5332 224.663 -83.2247 -230.25
lowerback 12.0902 1.04998 -4.59974
upperback 1.6372 0.682016 -0.54402
thorax -5.11149 0.385475 1.91588
lowerneck -19.8107 -6.09497 -12.4938
upperneck 28.0982 -8.21966 9.83926
head 13.8148 -3.82387 4.53122
rclavicle -2.88238e-015 1.31198e-014
rhumerus -37.0943 -15.0831 -78.3645
rradius 32.6036
rwrist 4.0421
rhand -15.5012 9.87194
rfingers 7.12502
rthumb 10.6813 -19.8365
lclavicle -2.88238e-015 1.31198e-014
lhumerus -34.0068 5.68997 79.9935
lradius 33.1718
lwrist -3.78104
lhand -21.0124 25.7967
lfingers 7.12502
lthumb 5.36241 55.7089
rfemur -18.897 -9.82692 13.2355
rtibia 69.4289
rfoot -2.59658 -3.29778
rtoes 15.0224
lfemur 2.16967 1.51041 -27.9113
ltibia 12.4489
lfoot -5.43347 -7.70818
ltoes -2.46309
396
root -4.74832 17.8628 15.5271 226.16 -83.3161 -231.69
lowerback 12.0566 0.955287 -4.64763
upperback 1.59515 0.549197 -0.592057
thorax -5.12813 0.322068 1.91423
lowerneck -19.7324 -6.02503 -12.2344
upperneck 28.0442 -8.16547 9.69789
head 13.7452 -3.7923 4.43756
rclavicle 9.64106e-015 4.37326e-015
rhumerus -37.2281 -15.0104 -78.5046
rradius 32.6865
rwrist 3.89026
rhand -15.781 9.94494
rfingers 7.12502
rthumb 10.4114 -19.7773
lclavicle 9.64106e-015 4.37326e-015
lhumerus -33.7153 5.47224 79.8281
lradius 33.5996
lwrist -3.41275
lhand -20.9019 25.3226
lfingers 7.12502
lthumb 5.46911 55.232
rfemur -19.731 -9.73183 13.2885
rtibia 68.5343
rfoot -3.53146 -3.46103
rtoes 13.5577
lfemur 2.07814 1.47604 -27.957
ltibia 13.2733
lfoot -6.12743 -7.7101
ltoes -0.0196681
397
root -4.85401 17.8457 15.5201 227.61 -83.3727 -233.087
lowerback 12.0078 0.897667 -4.75842
upperback 1.58438 0.46157 -0.588736
thorax -5.10736 0.281105 1.99474
lowerneck -19.6984 -5.9973 -12.1161
upperneck 27.9997 -8.11933 9.5657
head 13.699 -3.77607 4.3706
rclavicle 1.6524e-015 7.15625e-015
rhumerus -37.3133 -15.0244 -78.4812
rradius 32.7678
rwrist 3.90528
rhand -15.7914 10.1586
rfingers 7.12502
rthumb 10.4014 -19.5641
lclavicle 1.6524e-015 7.15625e-015
lhumerus -33.4035 5.09476 79.8127
lradius 34.1594
lwrist -2.78742
lhand -20.4078 24.8049
lfingers 7.12502
lthumb 5.94609 54.7015
rfemur -20.4995 -9.52437 13.3103
rtibia 67.4738
rfoot -4.15228 -3.681
rtoes 13.5627
lfemur 2.03338 1.55569 -28.005
ltibia 13.9789
lfoot -6.7792 -7.83277
ltoes 0.919058
398
root -4.96095 17.8244 15.5136 228.74 -83.3348 -234.251
lowerback 12.0699 0.85776 -4.96506
upperback 1.58864 0.380635 -0.534026
thorax -5.13344 0.246072 2.18164
lowerneck -19.7738 -6.01938 -12.1244
upperneck 27.9924 -8.07406 9.38901
head 13.6969 -3.77557 4.30704
rclavicle 1.54058e-015 7.95139e-015
rhumerus -37.3671 -15.0722 -78.3186
rradius 32.8555
rwrist 4.06862
rhand -15.5352 10.2003
rfingers 7.12502
rthumb 10.6486 -19.5099
lclavicle 1.54058e-015 7.95139e-015
lhumerus -33.0966 4.88671 79.8238
lradius 34.6525
lwrist -2.54548
lhand -19.8255 24.5436
lfingers 7.12502
lthumb 6.50832 54.4236
rfemur -21.0877 -9.24083 13.226
rtibia 66.2474
rfoot -4.66701 -3.94074
rtoes 15.1827
lfemur 2.15221 1.43252 -28.1693
ltibia 14.6091
lfoot -7.49583 -7.52425
ltoes 0.333934
399
root -5.06835 17.8077 15.5065 228.511 -83.375 -234.025
lowerback 12.1291 0.805295 -4.9739
upperback 1.57249 0.307058 -0.515796
thorax -5.178 0.211619 2.21761
lowerneck -19.7925 -6.02031 -12.0869
upperneck 27.967 -8.09772 9.42901
head 13.6935 -3.77608 4.31143
rclavicle -5.34234e-015 -1.31198e-014
rhumerus -37.3833 -15.1171 -78.3609
rradius 32.8115
rwrist 4.41441
rhand -15.5929 10.2399
rfingers 7.12502
rthumb 10.5929 -19.4731
lclavicle -5.34234e-015 -1.31198e-014
lhumerus -32.7743 4.78687 79.6766
lradius 35.0396
lwrist -2.52642
lhand -19.6691 24.7003
lfingers 7.12502
lthumb 6.65923 54.5756
rfemur -21.668 -8.87531 13.3308
rtibia 64.854
rfoot -5.15302 -4.27006
rtoes 15.9707
lfemur 2.30221 1.2169 -28.1784
ltibia 15.1635
lfoot -8.23489 -7.00854
ltoes -0.953278
400
root -5.17475 17.793 15.4994 228.994 -83.3636 -234.472
lowerback 12.1233 0.774059 -4.98341
upperback 1.56774 0.261061 -0.570125
thorax -5.17617 0.188525 2.17342
lowerneck -19.838 -6.02778 -11.999
upperneck 27.9932 -8.1527 9.46986
head 13.7195 -3.785 4.30279
rclavicle -9.0447e-015 -7.95139e-016
rhumerus -37.4502 -15.099 -78.4573
rradius 32.8487
rwrist 4.66056
rhand -15.5807 10.1774
rfingers 7.12502
rthumb 10.6047 -19.535
lclavicle -9.0447e-015 -7.95139e-016
lhumerus -32.4413 4.33299 79.6241
lradius 35.4977
lwrist -2.2218
lhand -20.0335 24.738
lfingers 7.12502
lthumb 6.30751 54.6241
rfemur -22.2766 -8.50261 13.3446
rtibia 63.3324
rfoot -5.6198 -4.77204
rtoes 15.1861
lfemur 2.45183 1.27129 -28.2457
ltibia 15.5919
lfoot -8.95114 -6.80921
ltoes -2.63418
401
root -5.28102 17.7783 15.4908 230.388 -83.2835 -235.8
lowerback 12.0695 0.760868 -5.15684
upperback 1.55547 0.223637 -0.575686
thorax -5.15718 0.173357 2.27153
lowerneck -19.7701 -6.03825 -12.016
upperneck 27.8966 -8.14197 9.42371
head 13.6611 -3.78766 4.28671
rclavicle -4.27387e-015 -4.37326e-015
rhumerus -37.5332 -14.9813 -78.4301
rradius 32.9234
rwrist 4.72413
rhand -15.4742 10.0797
rfingers 7.12502
rthumb 10.7074 -19.6275
lclavicle -4.27387e-015 -4.37326e-015
lhumerus -32.2023 3.70136 79.7819
lradius 36.0699
lwrist -1.68252
lhand -20.382 24.7944
lfingers 7.12502
lthumb 5.971 54.6903
rfemur -22.8161 -8.13724 13.2292
rtibia 61.6914
rfoot -6.05358 -5.43947
rtoes 14.7451
lfemur 2.64148 1.26446 -28.4299
ltibia 15.8422
lfoot -9.47387 -6.68516
ltoes -4.20714
402
root -5.38742 17.7633 15.4808 231.425 -83.1823 -236.798
lowerback 12.0665 0.740727 -5.36668
upperback 1.54736 0.167598 -0.595081
thorax -5.1604 0.149711 2.37854
lowerneck -19.7667 -6.0157 -12.0352
upperneck 27.7917 -8.10613 9.47988
head 13.6149 -3.76457 4.31681
rclavicle 3.10601e-015 1.35174e-014
rhumerus -37.5749 -15.0974 -78.4037
rradius 32.9181
rwrist 4.95943
rhand -15.4601 10.0438
rfingers 7.12502
rthumb 10.721 -19.6626
lclavicle 3.10601e-015 1.35174e-014
lhumerus -31.9294 3.23605 79.7842
lradius 36.5764
lwrist -1.24086
lhand -20.5717 25.074
lfingers 7.12502
lthumb 5.7879 54.975
rfemur -23.2329 -7.81155 13.0804
rtibia 59.9266
rfoot -6.28414 -6.06639
rtoes 13.9462
lfemur 2.94676 1.35035 -28.5697
ltibia 15.9139
lfoot -9.81189 -6.69285
ltoes -4.42471
